<svg width="67" height="67" viewBox="0 0 67 67" fill="none" xmlns="http://www.w3.org/2000/svg">
<g filter="url(#filter0_d_75_65)">
<circle cx="33.5" cy="33.5" r="27.5" transform="rotate(-180 33.5 33.5)" stroke="#18DDE9" stroke-width="2" shape-rendering="crispEdges"/>
</g>
<path d="M33.5 31.6868C31.6198 31.6868 30.0963 33.2237 30.0963 35.1204C30.0963 37.0182 31.6198 38.5541 33.5 38.5541C35.3802 38.5541 36.9038 37.0182 36.9038 35.1204C36.9038 33.2237 35.3802 31.6868 33.5 31.6868Z" fill="#18DDE9"/>
<path d="M49.424 25.5639C48.8314 24.9639 47.9963 24.5866 47.0851 24.5866H43.5092C43.2217 24.5877 42.9526 24.4155 42.8289 24.1371L41.7579 21.7395C41.2281 20.5509 40.0498 19.7778 38.7428 19.7778H28.2573C26.9501 19.7778 25.772 20.551 25.2411 21.7385V21.7395L24.1711 24.1372C24.0474 24.4155 23.7783 24.5877 23.4907 24.5867H19.9149C19.0036 24.5867 18.1677 24.964 17.5739 25.5639C16.9802 26.1617 16.6111 26.9977 16.6111 27.9079V43.2959C16.6111 44.2062 16.9802 45.0422 17.5739 45.64C18.1677 46.24 19.0037 46.6172 19.9149 46.6162H34.8101H47.0851C47.9964 46.6172 48.8314 46.24 49.424 45.64C50.0198 45.0421 50.3889 44.2062 50.3889 43.2959V27.9079C50.3889 26.9977 50.0198 26.1607 49.424 25.5639ZM47.8345 43.2959C47.8345 43.5145 47.75 43.7 47.6119 43.8423C47.4696 43.9814 47.2923 44.0618 47.0851 44.0629H34.8101H19.9149C19.7067 44.0618 19.5283 43.9815 19.3881 43.8423C19.25 43.7 19.1655 43.5144 19.1655 43.2959V27.9079C19.1655 27.6894 19.25 27.5038 19.3881 27.3616C19.5283 27.2214 19.7067 27.142 19.9149 27.141H23.4908C24.7958 27.141 25.975 26.3669 26.5049 25.1773L27.5729 22.7806C27.6986 22.5033 27.9666 22.3312 28.2573 22.3312H38.7428C39.0335 22.3312 39.3015 22.5033 39.4262 22.7796L40.4962 25.1783C41.0251 26.3668 42.2043 27.1409 43.5093 27.1409H47.0852C47.2924 27.142 47.4697 27.2213 47.6119 27.3615C47.7501 27.5038 47.8346 27.6903 47.8346 27.9079V43.2959H47.8345Z" fill="#18DDE9"/>
<path d="M33.5 27.5852C31.4342 27.5842 29.5582 28.4326 28.2088 29.7953C26.8575 31.158 26.0204 33.0455 26.0215 35.1205C26.0204 37.1955 26.8575 39.085 28.2088 40.4457C29.5582 41.8095 31.4343 42.6568 33.5 42.6568C35.5647 42.6568 37.4418 41.8095 38.7912 40.4457C40.1425 39.085 40.9796 37.1955 40.9785 35.1205C40.9796 33.0455 40.1425 31.158 38.7912 29.7953C37.4418 28.4325 35.5647 27.5842 33.5 27.5852ZM37.3944 39.0613C36.3935 40.0704 35.0225 40.69 33.5 40.69C31.9764 40.69 30.6065 40.0704 29.6045 39.0613C28.6057 38.0521 27.9882 36.6646 27.9872 35.1205C27.9882 33.5773 28.6057 32.1899 29.6045 31.1797C30.6065 30.1705 31.9764 29.552 33.5 29.551C35.0225 29.552 36.3935 30.1705 37.3944 31.1797C38.3943 32.1899 39.0118 33.5774 39.0128 35.1205C39.0118 36.6646 38.3943 38.0521 37.3944 39.0613Z" fill="#18DDE9"/>
<path d="M44.7545 29.3481H42.4846V31.618H44.7545V29.3481Z" fill="#18DDE9"/>
<defs>
<filter id="filter0_d_75_65" x="0" y="0" width="67" height="67" filterUnits="userSpaceOnUse" color-interpolation-filters="sRGB">
<feFlood flood-opacity="0" result="BackgroundImageFix"/>
<feColorMatrix in="SourceAlpha" type="matrix" values="0 0 0 0 0 0 0 0 0 0 0 0 0 0 0 0 0 0 127 0" result="hardAlpha"/>
<feMorphology radius="1" operator="dilate" in="SourceAlpha" result="effect1_dropShadow_75_65"/>
<feOffset/>
<feGaussianBlur stdDeviation="2"/>
<feComposite in2="hardAlpha" operator="out"/>
<feColorMatrix type="matrix" values="0 0 0 0 1 0 0 0 0 1 0 0 0 0 1 0 0 0 0.5 0"/>
<feBlend mode="normal" in2="BackgroundImageFix" result="effect1_dropShadow_75_65"/>
<feBlend mode="normal" in="SourceGraphic" in2="effect1_dropShadow_75_65" result="shape"/>
</filter>
</defs>
</svg>
