<svg width="90" height="26" viewBox="0 0 90 26" fill="none" xmlns="http://www.w3.org/2000/svg">
<path d="M2.385 25.625V12.2188H0.0412502V12.0625L1.30688 9.375H2.385V7.34375C2.385 5.625 3.03083 4.13021 4.3225 2.85938C5.53083 1.68229 7.04646 1.09375 8.86938 1.09375H10.9788V1.25L9.72875 3.875H8.86938C7.93188 3.875 7.135 4.15625 6.47875 4.71875C5.83292 5.28125 5.51 6.15625 5.51 7.34375V9.375H10.6819V9.53125L9.41625 12.2188H5.51V24.2188L2.54125 25.625H2.385ZM18.8663 25V2.1875L21.835 0.78125H21.9913V22.1562H32.6944V22.3125L31.4288 25H18.8663ZM50.995 18.0781V19.0625C50.995 20.7812 50.3492 22.276 49.0575 23.5469C47.8492 24.724 46.3335 25.3125 44.5106 25.3125C42.7085 25.3125 41.1929 24.724 39.9637 23.5469C38.6721 22.2969 38.0262 20.8021 38.0262 19.0625V13.75C38.0262 12.0312 38.6721 10.5365 39.9637 9.26562C41.1721 8.08854 42.6877 7.5 44.5106 7.5C46.2815 7.5 47.7971 8.08854 49.0575 9.26562C50.3492 10.474 50.995 11.8177 50.995 13.2969V13.3281L41.4637 20.7969C41.62 21.151 41.8387 21.4479 42.12 21.6875C42.7762 22.25 43.5731 22.5312 44.5106 22.5312C45.4481 22.5312 46.2398 22.25 46.8856 21.6875C47.5419 21.125 47.87 20.3906 47.87 19.4844L50.8387 18.0781H50.995ZM41.1512 17.6406L47.6825 12.3438C47.5158 11.8333 47.2554 11.4271 46.9012 11.125C46.245 10.5625 45.4481 10.2812 44.5106 10.2812C43.5731 10.2812 42.7762 10.5625 42.12 11.125C41.4742 11.6771 41.1512 12.5521 41.1512 13.75V17.6406ZM57.6025 25.625V13.75C57.6025 12.0312 58.2483 10.5365 59.54 9.26562C60.7483 8.08854 62.264 7.5 64.0869 7.5C65.889 7.5 67.4046 8.08854 68.6338 9.26562C69.9254 10.5156 70.5713 12.0104 70.5713 13.75V24.2188L67.6025 25.625H67.4463V13.75C67.4463 12.5521 67.1181 11.6771 66.4619 11.125C65.816 10.5625 65.0244 10.2812 64.0869 10.2812C63.1494 10.2812 62.3525 10.5625 61.6963 11.125C61.0504 11.6771 60.7275 12.5521 60.7275 13.75V24.2188L57.7588 25.625H57.6025ZM76.71 19.4844L79.6787 18.0781H79.835V19.3281C79.835 20.4948 80.1735 21.3802 80.8506 21.9844C81.4965 22.5573 82.2777 22.8438 83.1944 22.8438C84.2569 22.8438 85.085 22.5052 85.6787 21.8281C86.3037 21.1198 86.6162 20.349 86.6162 19.5156C86.6162 18.6198 86.2829 17.9115 85.6162 17.3906C85.0433 16.9427 84.2308 16.7188 83.1787 16.7188C81.3246 16.7188 79.861 16.3125 78.7881 15.5C77.8402 14.7917 77.3662 13.6927 77.3662 12.2031C77.3662 10.7552 78.0277 9.55729 79.3506 8.60938C80.3819 7.86979 81.6631 7.5 83.1944 7.5C84.6631 7.5 85.9392 7.95833 87.0225 8.875C87.8558 9.59375 88.3715 10.4271 88.5694 11.375L85.6006 12.7812H85.4444V12.3281C85.4444 11.7865 85.2881 11.3229 84.9756 10.9375C84.4756 10.2917 83.7621 9.96875 82.835 9.96875C82.0954 9.96875 81.4912 10.2031 81.0225 10.6719C80.5642 11.1302 80.335 11.6406 80.335 12.2031C80.335 12.8698 80.6162 13.401 81.1787 13.7969C81.4912 14.0156 82.1579 14.125 83.1787 14.125C85.2933 14.125 86.8819 14.6094 87.9444 15.5781C89.1006 16.6302 89.6787 18 89.6787 19.6875C89.6787 21.0417 89.0798 22.3333 87.8819 23.5625C86.7465 24.7292 85.184 25.3125 83.1944 25.3125C81.3923 25.3125 79.8767 24.8125 78.6475 23.8125C77.3558 22.7604 76.71 21.3177 76.71 19.4844Z" fill="white"/>
</svg>
